<?xml version="1.0" encoding="UTF-8"?>
<svg xmlns="http://www.w3.org/2000/svg" xmlns:xlink="http://www.w3.org/1999/xlink" viewBox="0 0 1216.28 1123.22">
  <defs>
    <style>
      .cls-1 {
        fill: url(#Degradado_sin_nombre_90);
      }

      .cls-2 {
        fill: url(#Degradado_sin_nombre_90-2);
      }

      .cls-3 {
        isolation: isolate;
      }

      .cls-4, .cls-5 {
        mix-blend-mode: multiply;
      }

      .cls-6 {
        fill: url(#Degradado_sin_nombre_76);
      }

      .cls-5 {
        fill: url(#Degradado_sin_nombre_65);
        opacity: .73;
      }

      .cls-7 {
        fill: url(#Degradado_sin_nombre_97);
      }

      .cls-8 {
        fill: #050036;
      }
    </style>
    <linearGradient id="Degradado_sin_nombre_76" data-name="Degradado sin nombre 76" x1="1191.23" y1="99.41" x2="428.78" y2="814.41" gradientUnits="userSpaceOnUse">
      <stop offset="0" stop-color="#00d8ff"/>
      <stop offset="1" stop-color="#0051ff"/>
    </linearGradient>
    <linearGradient id="Degradado_sin_nombre_65" data-name="Degradado sin nombre 65" x1="316.1" y1="607.12" x2="816.87" y2="607.12" gradientUnits="userSpaceOnUse">
      <stop offset="0" stop-color="#0a60e9" stop-opacity="0"/>
      <stop offset="1" stop-color="#0c43e6"/>
    </linearGradient>
    <linearGradient id="Degradado_sin_nombre_97" data-name="Degradado sin nombre 97" x1="771.77" y1="-125.7" x2="203.21" y2="505.65" gradientUnits="userSpaceOnUse">
      <stop offset="0" stop-color="#00d8ff"/>
      <stop offset="1" stop-color="#0051ff"/>
    </linearGradient>
    <linearGradient id="Degradado_sin_nombre_90" data-name="Degradado sin nombre 90" x1="464.54" y1="29.81" x2="464.54" y2="27.74" gradientUnits="userSpaceOnUse">
      <stop offset="0" stop-color="#01f5fa" stop-opacity="0"/>
      <stop offset=".37" stop-color="#01f5fa"/>
      <stop offset="1" stop-color="#0c43e6"/>
    </linearGradient>
    <linearGradient id="Degradado_sin_nombre_90-2" data-name="Degradado sin nombre 90" x1="406.36" y1="650.61" x2="406.36" y2="121.96" xlink:href="#Degradado_sin_nombre_90"/>
  </defs>
  <g class="cls-3">
    <g id="Capa_1" data-name="Capa 1">
      <g>
        <g>
          <path class="cls-8" d="M354.31,932.74v26.37c0,48.84-15.77,88.4-47.31,118.69-31.54,30.28-72.27,45.42-122.21,45.42-53.22,0-97.33-17.17-132.31-51.53C17.49,1037.34,0,995.42,0,945.93s17.32-91.98,51.99-126.5c34.65-34.51,77.61-51.77,128.86-51.77,32.19,0,61.6,7.25,88.21,21.73,26.61,14.5,47.31,33.79,62.09,57.88l-58.15,33.21c-8.22-14-20.62-25.4-37.21-34.19s-35.07-13.18-55.44-13.18c-32.85,0-59.87,10.67-81.06,31.99-21.19,21.33-31.78,48.28-31.78,80.83s10.76,58.85,32.28,79.85c21.51,21,50.02,31.5,85.49,31.5,26.28,0,48.05-5.78,65.3-17.34,17.25-11.56,28.99-27.43,35.23-47.62h-104.47v-59.59h172.97Z"/>
          <path class="cls-8" d="M573.45,885.06h61.43v235.47h-61.43v-33.59c-14.92,22.4-38.57,33.59-70.95,33.59-26.03,0-47.54-8.8-64.52-26.39-16.99-17.59-25.48-41.91-25.48-72.95v-136.13h61.42v128.45c0,16,4.29,28.23,12.86,36.71,8.57,8.48,20,12.72,34.28,12.72,15.87,0,28.57-4.96,38.1-14.87,9.52-9.92,14.28-24.79,14.28-44.63v-118.37Z"/>
          <path class="cls-8" d="M724.16,855.64c-9.22,0-17.21-3.49-23.97-10.47-6.77-6.98-10.15-15.22-10.15-24.74s3.38-17.83,10.15-24.96c6.76-7.13,14.75-10.7,23.97-10.7s17.63,3.57,24.4,10.7c6.76,7.13,10.15,15.45,10.15,24.96s-3.39,17.76-10.15,24.74c-6.77,6.98-14.9,10.47-24.4,10.47"/>
          <rect class="cls-8" x="693.73" y="885.06" width="61.3" height="235.83"/>
          <path class="cls-8" d="M875.06,927.73c5.84-15.75,17.07-27.57,30.54-35.44,13.46-7.88,28.47-11.81,45.02-11.81v70.89c-19.15-2.29-37.84,1.65-52.92,11.81-15.09,10.17-22.63,27.08-22.63,50.7v106.54h-61.2v-235.02h61.2v42.34Z"/>
          <path class="cls-8" d="M1159.32,885.06h56.96v235.35h-56.96v-32.13c-17.08,21.74-41.07,32.6-71.98,32.6s-54.68-11.39-75.73-34.17c-21.05-22.78-31.58-50.69-31.58-83.74s10.52-60.96,31.58-83.74c21.04-22.78,46.29-34.17,75.73-34.17,30.91,0,54.9,10.87,71.98,32.6v-32.6ZM1054.22,1048.31c11.48,11.76,26.05,17.64,43.72,17.64s32.3-5.88,43.94-17.64c11.63-11.76,17.44-26.87,17.44-45.34s-5.82-33.57-17.44-45.33c-11.64-11.76-26.27-17.64-43.94-17.64s-32.23,5.88-43.72,17.64c-11.48,11.76-17.22,26.87-17.22,45.33s5.74,33.57,17.22,45.34"/>
        </g>
        <g>
          <g>
            <path class="cls-6" d="M990.24,23.73l-297.88,297.92c-9.17,9.13-2.7,24.81,10.28,24.81h124.21c7.98,0,14.41,6.47,14.41,14.41v159.38h-341.93c-3.57,0-7,1.42-9.52,3.94l-145.02,145.02c-9.15,9.15-2.67,24.79,10.27,24.79h433.65c33.66,0,65.93-13.37,89.73-37.17l119.82-119.37c10.4-10.36,16.25-24.45,16.25-39.13V33.97c0-12.9-15.13-19.37-24.26-10.24Z"/>
            <path class="cls-5" d="M841.26,607.1v-86.86h-341.93c-3.57,0-7,1.42-9.52,3.94l-145.02,145.02c-9.15,9.15-2.67,24.79,10.27,24.79h399.32c47.99,0,86.89-38.9,86.89-86.89Z"/>
          </g>
          <g>
            <path class="cls-7" d="M806.08,0h-297.24c-10.02,0-19.62,3.98-26.7,11.06l-13.51,13.51-1.22,1.25-5.81,5.83-115.44,115.44c-17.07,17.07-26.66,40.22-26.66,64.36v24.12c0,.07,0,.14,0,.21v251.02c0,12.72,15.38,19.09,24.37,10.1l145.73-145.73c2.34-2.34,3.65-5.51,3.65-8.81v-168.6h167.99c3.69,0,7.22-1.47,9.8-4.05L816.32,24.81c9.17-9.17,2.7-24.81-10.24-24.81Z"/>
            <g class="cls-4">
              <polygon class="cls-1" points="467.39 25.83 461.68 31.55 466.68 26.56 467.39 25.83"/>
              <path class="cls-2" d="M406.46,173.75c-47.97,0-86.86,38.89-86.86,86.86v.04h-.12v-25.07c0,.07,0,.14,0,.21v251.02c0,12.72,15.38,19.09,24.37,10.1l145.73-145.73c2.34-2.34,3.65-5.51,3.65-8.81v-168.6h-86.78Z"/>
            </g>
          </g>
        </g>
      </g>
    </g>
  </g>
</svg>