<?xml version="1.0" encoding="UTF-8"?>
<svg xmlns="http://www.w3.org/2000/svg" xmlns:xlink="http://www.w3.org/1999/xlink" viewBox="0 0 2040 2040">
  <defs>
    <style>
      .cls-1 {
        fill: url(#Degradado_sin_nombre_90);
      }

      .cls-2 {
        fill: url(#Degradado_sin_nombre_90-2);
      }

      .cls-3 {
        isolation: isolate;
      }

      .cls-4, .cls-5 {
        mix-blend-mode: multiply;
      }

      .cls-6 {
        fill: url(#Degradado_sin_nombre_76);
      }

      .cls-5 {
        fill: url(#Degradado_sin_nombre_65);
        opacity: .73;
      }

      .cls-7 {
        fill: url(#Degradado_sin_nombre_97);
      }

      .cls-8 {
        fill: #050036;
      }
    </style>
    <linearGradient id="Degradado_sin_nombre_76" data-name="Degradado sin nombre 76" x1="803.71" y1="891.48" x2="407.93" y2="1262.63" gradientUnits="userSpaceOnUse">
      <stop offset="0" stop-color="#00d8ff"/>
      <stop offset="1" stop-color="#0051ff"/>
    </linearGradient>
    <linearGradient id="Degradado_sin_nombre_65" data-name="Degradado sin nombre 65" x1="349.44" y1="1155.03" x2="609.38" y2="1155.03" gradientUnits="userSpaceOnUse">
      <stop offset="0" stop-color="#0a60e9" stop-opacity="0"/>
      <stop offset="1" stop-color="#0c43e6"/>
    </linearGradient>
    <linearGradient id="Degradado_sin_nombre_97" data-name="Degradado sin nombre 97" x1="585.97" y1="774.63" x2="290.83" y2="1102.35" gradientUnits="userSpaceOnUse">
      <stop offset="0" stop-color="#00d8ff"/>
      <stop offset="1" stop-color="#0051ff"/>
    </linearGradient>
    <linearGradient id="Degradado_sin_nombre_90" data-name="Degradado sin nombre 90" x1="426.49" y1="855.35" x2="426.49" y2="854.27" gradientUnits="userSpaceOnUse">
      <stop offset="0" stop-color="#01f5fa" stop-opacity="0"/>
      <stop offset=".37" stop-color="#01f5fa"/>
      <stop offset="1" stop-color="#0c43e6"/>
    </linearGradient>
    <linearGradient id="Degradado_sin_nombre_90-2" data-name="Degradado sin nombre 90" x1="396.29" y1="1177.6" x2="396.29" y2="903.19" xlink:href="#Degradado_sin_nombre_90"/>
  </defs>
  <g class="cls-3">
    <g id="Capa_1" data-name="Capa 1">
      <g>
        <path class="cls-8" d="M1028.14,1011.71v20.21c0,37.44-12.09,67.76-36.26,90.97-24.17,23.21-55.4,34.81-93.67,34.81-40.79,0-74.6-13.16-101.41-39.5-26.82-26.33-40.22-58.45-40.22-96.39s13.28-70.5,39.85-96.96c26.56-26.45,59.49-39.68,98.77-39.68,24.68,0,47.22,5.56,67.61,16.66,20.4,11.11,36.26,25.9,47.59,44.36l-44.57,25.46c-6.3-10.73-15.8-19.47-28.52-26.21-12.72-6.74-26.88-10.11-42.49-10.11-25.18,0-45.89,8.18-62.13,24.52-16.24,16.35-24.36,37-24.36,61.96s8.25,45.11,24.74,61.2c16.49,16.1,38.34,24.15,65.53,24.15,20.14,0,36.83-4.43,50.05-13.29,13.22-8.86,22.22-21.02,27-36.5h-80.07v-45.67h132.57Z"/>
        <path class="cls-8" d="M1192.1,975.17h47.08v180.48h-47.08v-25.75c-11.44,17.17-29.56,25.75-54.38,25.75-19.95,0-36.44-6.74-49.45-20.23-13.02-13.49-19.53-32.12-19.53-55.91v-104.34h47.08v98.45c0,12.26,3.29,21.64,9.86,28.14,6.57,6.5,15.33,9.75,26.28,9.75,12.17,0,21.9-3.8,29.2-11.4,7.3-7.6,10.95-19,10.95-34.21v-90.73Z"/>
        <path class="cls-8" d="M1307.61,952.62c-7.07,0-13.19-2.67-18.37-8.03-5.19-5.35-7.78-11.67-7.78-18.96s2.59-13.66,7.78-19.13c5.18-5.46,11.3-8.2,18.37-8.2s13.51,2.73,18.7,8.2c5.18,5.46,7.78,11.84,7.78,19.13s-2.6,13.62-7.78,18.96c-5.19,5.35-11.42,8.03-18.7,8.03"/>
        <rect class="cls-8" x="1284.29" y="975.17" width="46.98" height="180.75"/>
        <path class="cls-8" d="M1423.28,1007.87c4.48-12.08,13.08-21.13,23.4-27.17,10.32-6.04,21.82-9.06,34.51-9.06v54.33c-14.68-1.76-29,1.26-40.56,9.06-11.57,7.8-17.35,20.75-17.35,38.86v81.66h-46.91v-180.14h46.91v32.45Z"/>
        <path class="cls-8" d="M1635.15,975.17h43.66v180.39h-43.66v-24.63c-13.09,16.66-31.48,24.99-55.17,24.99s-41.91-8.73-58.04-26.19c-16.14-17.46-24.2-38.85-24.2-64.19s8.07-46.73,24.2-64.19c16.13-17.46,35.48-26.19,58.04-26.19,23.69,0,42.08,8.33,55.17,24.99v-24.99ZM1554.6,1100.29c8.8,9.02,19.97,13.52,33.51,13.52s24.76-4.51,33.68-13.52c8.91-9.02,13.37-20.59,13.37-34.75s-4.46-25.73-13.37-34.75c-8.92-9.02-20.14-13.52-33.68-13.52s-24.7,4.51-33.51,13.52c-8.8,9.02-13.2,20.6-13.2,34.75s4.4,25.73,13.2,34.75"/>
        <g>
          <g>
            <path class="cls-6" d="M699.38,852.19l-154.63,154.65c-4.76,4.74-1.4,12.88,5.34,12.88h64.48c4.14,0,7.48,3.36,7.48,7.48v82.73h-177.49c-1.85,0-3.63.74-4.94,2.05l-75.28,75.28c-4.75,4.75-1.39,12.87,5.33,12.87h225.1c17.47,0,34.23-6.94,46.58-19.3l62.2-61.96c5.4-5.38,8.44-12.69,8.44-20.31v-241.04c0-6.7-7.85-10.06-12.59-5.32Z"/>
            <path class="cls-5" d="M622.04,1155.02v-45.09h-177.49c-1.85,0-3.63.74-4.94,2.05l-75.28,75.28c-4.75,4.75-1.39,12.87,5.33,12.87h207.28c24.91,0,45.11-20.19,45.11-45.11Z"/>
          </g>
          <g>
            <path class="cls-7" d="M603.78,839.88h-154.3c-5.2,0-10.18,2.07-13.86,5.74l-7.01,7.01-.63.65-3.02,3.03-59.93,59.93c-8.86,8.86-13.84,20.88-13.84,33.41v12.52s0,.07,0,.11v130.3c0,6.6,7.98,9.91,12.65,5.24l75.65-75.65c1.21-1.21,1.89-2.86,1.89-4.57v-87.52h87.2c1.92,0,3.75-.76,5.09-2.1l75.42-75.21c4.76-4.76,1.4-12.88-5.32-12.88Z"/>
            <g class="cls-4">
              <polygon class="cls-1" points="427.97 853.29 425.01 856.26 427.6 853.66 427.97 853.29"/>
              <path class="cls-2" d="M396.34,930.07c-24.9,0-45.09,20.19-45.09,45.09v.02h-.06v-13.02s0,.07,0,.11v130.3c0,6.6,7.98,9.91,12.65,5.24l75.65-75.65c1.21-1.21,1.89-2.86,1.89-4.57v-87.52h-45.04Z"/>
            </g>
          </g>
        </g>
      </g>
    </g>
  </g>
</svg>